<?xml version="1.0" encoding="UTF-8" standalone="no"?>
<svg xmlns:svg="http://www.w3.org/2000/svg" xmlns="http://www.w3.org/2000/svg" xmlns:xlink="http://www.w3.org/1999/xlink" version="1.1"
	width="900px" height="900px" viewBox="0 0 90 90" xml:space="preserve">
	<rect x="0" y="0" width="90" height="90" style="fill :#00008B; stroke :none;" />
	<g  id="plate">
		<circle cx="90" cy="45" r="39" style="fill :#FFFFFF; stroke :none;" />
		<circle cx="90" cy="45" r="37" style="fill :#00008B; stroke :none;" />
		<circle cx="90" cy="45" r="25" style="fill :#FFFFFF; stroke :none;" />
		<circle cx="90" cy="45" r="23" style="fill :#00008B; stroke :none;" />
	</g>
	<path id="fork" transform="translate(15,5)"  d="M -5,80 L -3,30 A 5 5 0 0 1 -8,25 L -8,0 -5,0 -5,20 -3,20 -3,0 -1,0 -1,20 1,20 1,0 3,0 3,20 5,20 5,0 8,0 8,25 A 5 5 0 0 1 3,30 L 5,80 z" style="fill :#FFFFFF; stroke :none;" />
	<path id="knife" transform="translate(40,5)" d="M 0,80 L 0,6 A 3 6 0 0 0 -3,0 A 6 20 0 0 0 -9,20 L -9,46 A 4,4 0 0 0 -5,50 L -6,80 z" style="fill :#FFFFFF; stroke :none;" />
</svg>